<svg height="512pt" viewBox="-2 0 511 512" width="512pt" xmlns="http://www.w3.org/2000/svg">
<g fill="rgba(250,245,232,0.75)">

<path d="m416.0625 210.136719 91.523438-32.898438-21.289063-56.328125-35.578125-13.710937-13.582031-35.933594-35.578125-13.714844-13.578125-35.933593-56.097657-21.617188-32.625 92.582031c56.65625 15.859375 101.296876 60.757813 116.804688 117.554688zm0 0"/><path d="m92.882812 301.554688-92.382812 33.207031 21.285156 56.328125 35.582032 13.710937 13.578124 35.933594 35.578126 13.714844 13.578124 35.933593 56.097657 21.617188 33.703125-95.640625c-56.148438-15.3125-100.667969-59.09375-117.019532-114.804687zm0 0"/><path d="m241.851562 115.933594c-10.058593.878906-19.816406 2.824218-29.148437 5.738281-.042969 1.53125-.066406 3.066406-.066406 4.59375 0 93.804687 76.316406 170.121094 170.121093 170.121094 1.238282 0 2.480469-.035157 3.722657-.0625 2.980469-9.382813 4.988281-19.195313 5.910156-29.320313-74.652344-17.078125-133.714844-76.261718-150.539063-151.070312zm0 0"/><path d="m272.949219 116.683594c15.722656 57.675781 61.25 103.3125 118.804687 119.226562-8.214844-61.742187-57.128906-110.796875-118.804687-119.226562zm0 0"/><path d="m129.289062 193.222656c-9.074218 18.453125-14.179687 39.1875-14.179687 61.101563 0 76.605469 62.324219 138.929687 138.933594 138.929687 21.472656 0 41.820312-4.898437 59.992187-13.632812-99.054687-7.339844-178.261718-87.105469-184.746094-186.398438zm0 0"/><path d="m182.839844 135.070312c-7.730469 4.632813-14.972656 9.992188-21.636719 15.988282l.097656.015625c-1.628906 9.503906-2.457031 19.253906-2.457031 28.980469 0 93.808593 76.316406 170.125 170.125 170.125 9.269531 0 18.546875-.753907 27.632812-2.234376 6.125-6.703124 11.601563-14.003906 16.332032-21.804687-102.886719-5-185.609375-88.054687-190.09375-191.070313zm0 0"/></g></svg>