<?xml version="1.0" encoding="UTF-8"?>
<!DOCTYPE svg  PUBLIC '-//W3C//DTD SVG 1.1//EN'  'http://www.w3.org/Graphics/SVG/1.1/DTD/svg11.dtd'>
<svg enable-background="new 0 0 100 100" version="1.1" viewBox="0 0 100 100" xml:space="preserve" xmlns="http://www.w3.org/2000/svg" fill="rgba(250,245,232,0.9)">
	<path d="m71.087 18.542c-0.42-0.172-0.879-0.268-1.36-0.268-0.59 0-1.146 0.145-1.639 0.397-1.164 0.597-1.961 1.805-1.961 3.203 0 1.352 0.75 2.522 1.854 3.137-1.121 10.328-8.748 18.345-17.965 18.345-9.222 0-16.851-8.024-17.967-18.357 1.091-0.618 1.833-1.782 1.833-3.125 0-1.398-0.796-2.606-1.96-3.203-0.492-0.252-1.049-0.397-1.639-0.397-0.482 0-0.941 0.097-1.36 0.268-1.314 0.538-2.24 1.826-2.24 3.333s0.927 2.795 2.24 3.332c0.045 0.018 0.094 0.025 0.138 0.042 1.251 11.873 10.168 21.109 20.957 21.109 10.792 0 19.708-9.24 20.958-21.116 0.037-0.014 0.078-0.02 0.115-0.035 1.313-0.537 2.239-1.825 2.236-3.332-1e-3 -1.508-0.927-2.796-2.24-3.333z" fill="none"/>
	<path d="m92.115 7.593h-84.232l-2.883 79.048c0 3.187 2.582 5.769 5.767 5.769h78.465c3.187 0 5.769-2.582 5.769-5.769l-2.886-79.048zm-21.025 17.614c-0.037 0.015-0.078 0.021-0.115 0.035-1.25 11.876-10.168 21.116-20.958 21.116-10.789 0-19.706-9.236-20.957-21.109-0.044-0.017-0.093-0.024-0.138-0.042-1.313-0.537-2.24-1.825-2.24-3.332s0.926-2.795 2.24-3.333c0.419-0.171 0.878-0.268 1.36-0.268 0.59 0 1.147 0.145 1.639 0.397 1.164 0.597 1.96 1.805 1.96 3.203 0 1.343-0.742 2.507-1.833 3.125 1.116 10.333 8.745 18.357 17.967 18.357 9.217 0 16.844-8.017 17.965-18.345-1.104-0.615-1.854-1.785-1.854-3.137 0-1.398 0.797-2.606 1.961-3.203 0.492-0.252 1.049-0.397 1.639-0.397 0.481 0 0.94 0.096 1.36 0.268 1.313 0.537 2.239 1.825 2.239 3.333 4e-3 1.507-0.923 2.795-2.235 3.332z"/>
</svg>
