<?xml version="1.0" encoding="UTF-8" standalone="no"?>
<!-- Created with Inkscape (http://www.inkscape.org/) -->

<svg
   xmlns:dc="http://purl.org/dc/elements/1.1/"
   xmlns:cc="http://creativecommons.org/ns#"
   xmlns:rdf="http://www.w3.org/1999/02/22-rdf-syntax-ns#"
   xmlns:svg="http://www.w3.org/2000/svg"
   xmlns="http://www.w3.org/2000/svg"
   xmlns:sodipodi="http://sodipodi.sourceforge.net/DTD/sodipodi-0.dtd"
   xmlns:inkscape="http://www.inkscape.org/namespaces/inkscape"
   viewBox="0 0 165 160"
   version="1.1"
   id="svg21759"
   inkscape:version="0.92.4 (5da689c313, 2019-01-14)"
   sodipodi:docname="smiley 3.svg">
    <g
       
       transform="matrix(0.35277777,0,0,-0.35277777,-23,298.5)"
       inkscape:label="eyes-line-art-5019556"
       id="g1006"
       style="stroke:rgba(235, 206, 146, 1);stroke-width:13; "
       >
      <g
         id="g1008">
        <g
           id="g12146"
           transform="matrix(1.7632922,0,0,1.7632922,-1051.3543,-785.78491)">
          <g
             transform="translate(761.85067,683.15801)"
             id="g24">
            <path
               inkscape:connector-curvature="0"
               id="path26"
               
               d="m 0,0 c 3.246,0.089 7.669,0.319 12.072,0.783 2.931,0.309 5.858,0.752 8.753,1.311 5.574,1.077 11.033,2.59 16.434,4.361 8.784,2.88 17.088,6.802 24.988,11.527 8.4,5.024 16.13,10.971 23.095,17.89 11.265,11.19 20.002,24.043 25.781,38.857 2.229,5.715 3.981,11.574 5.187,17.601 0.982,4.908 1.546,9.866 1.877,14.844 0.704,10.566 0.304,21.101 -1.489,31.549 -1.714,9.986 -4.425,19.685 -8.627,28.943 -3.58,7.886 -7.877,15.323 -13.291,22.112 -8.173,10.249 -17.943,18.58 -29.435,24.906 -8.612,4.741 -17.723,8.123 -27.328,10.181 -4.442,0.951 -8.931,1.593 -13.456,2.038 -6.917,0.679 -13.836,0.679 -20.75,0.169 -5.091,-0.376 -10.169,-0.957 -15.209,-1.808 -4.924,-0.832 -9.835,-1.742 -14.666,-3.013 -7.572,-1.992 -15.096,-4.15 -22.453,-6.85 -0.745,-0.273 -1.503,-0.518 -2.268,-0.731 -1.164,-0.323 -2.227,0.092 -2.95,1.139 -0.192,0.276 -0.292,0.615 -0.468,0.905 -0.278,0.458 -0.729,0.608 -1.151,0.355 -2.333,-1.403 -4.7,-2.754 -6.975,-4.245 -5.321,-3.491 -10.343,-7.381 -15.183,-11.514 -9.489,-8.107 -17.518,-17.443 -23.877,-28.189 -4.823,-8.151 -8.509,-16.771 -10.867,-25.966 -1.699,-6.624 -2.744,-13.338 -3.047,-20.151 -0.182,-4.076 -0.193,-8.177 0.034,-12.249 0.29,-5.208 0.919,-10.396 1.915,-15.527 0.994,-5.125 2.174,-10.198 3.767,-15.181 2.077,-6.499 4.643,-12.788 7.677,-18.896 8.835,-17.783 20.924,-32.872 37.017,-44.632 8.106,-5.923 16.795,-10.763 26.315,-14.081 6.45,-2.248 13.024,-3.989 19.757,-5.046 C -12.989,0.476 -7.095,0.06 0,0 m -3.58,-13.013 c -10.969,-0.155 -21.73,1.353 -32.294,4.261 -8.691,2.391 -16.897,5.952 -24.702,10.449 -5.822,3.354 -11.192,7.34 -16.377,11.596 -6.609,5.426 -12.505,11.553 -17.918,18.146 -3.459,4.215 -6.547,8.707 -9.49,13.297 -4.798,7.481 -8.667,15.438 -11.9,23.691 -3.153,8.047 -5.405,16.359 -6.787,24.907 -1.162,7.189 -1.736,14.426 -1.784,21.69 -0.027,4.078 0.293,8.169 0.675,12.233 0.467,4.97 1.226,9.904 2.354,14.78 1.976,8.541 4.667,16.833 8.476,24.74 4.357,9.045 9.713,17.45 16.436,24.933 12.023,13.379 25.883,24.449 41.763,32.949 7.847,4.2 16.114,7.297 24.796,9.27 1.328,0.301 2.67,0.568 4.02,0.73 1.587,0.192 3.124,0.583 4.652,1.006 6.459,1.785 12.981,3.293 19.597,4.354 8.759,1.404 17.579,2.127 26.458,1.932 9.928,-0.219 19.658,-1.761 29.182,-4.556 3.813,-1.119 7.525,-2.544 11.15,-4.175 8.845,-3.979 17.112,-8.944 24.626,-15.062 7.599,-6.187 14.36,-13.205 20.032,-21.244 4.992,-7.074 9.313,-14.517 12.711,-22.478 2.678,-6.274 4.804,-12.739 6.306,-19.395 1.449,-6.426 2.48,-12.913 2.977,-19.495 0.368,-4.873 0.562,-9.739 0.545,-14.623 -0.013,-4.209 -0.363,-8.393 -0.835,-12.565 -0.547,-4.847 -1.314,-9.662 -2.354,-14.439 -1.21,-5.556 -2.864,-10.97 -4.774,-16.317 C 120.318,67.394 115.395,57.829 109.378,48.83 105.399,42.876 100.921,37.298 96.095,32.006 85.527,20.418 73.431,10.734 59.696,3.151 50.021,-2.189 39.871,-6.367 29.113,-9.052 20.49,-11.204 11.748,-12.465 2.892,-12.994 c -2.15,-0.128 -4.314,-0.019 -6.472,-0.019" />
          </g>
          <g
             transform="translate(809.68807,764.53161)"
             id="g68">
            <path
               inkscape:connector-curvature="0"
               id="path70"
               
               d="m 0,0 c -2.116,-2.018 -3.853,-4.271 -5.839,-6.289 -0.223,-0.227 -0.334,-0.564 -0.507,-0.868 0.159,-0.328 0.258,-0.667 0.461,-0.925 2.05,-2.603 3.596,-5.501 5.032,-8.469 0.741,-1.532 1.563,-3.024 2.35,-4.533 0.743,-1.424 1.71,-2.697 2.888,-3.769 3.235,-2.945 7.012,-4.161 11.319,-3.076 5.5,1.386 9.041,5.034 11.024,10.203 1.637,4.269 1.541,8.684 0.483,13.075 -1.412,5.865 -4.289,10.975 -8.4,15.356 -1.86,1.982 -3.937,3.767 -6.416,4.995 -0.41,0.202 -1.001,0.113 -1.242,-0.2 C 10.946,15.23 10.735,14.963 10.548,14.679 8.922,12.217 7.297,9.754 5.684,7.284 5.44,6.911 5.263,6.495 5.011,6.017 5.406,5.704 5.718,5.361 6.104,5.169 7.864,4.297 9.319,3.046 10.642,1.625 c 1.236,-1.33 2.492,-2.646 3.667,-4.028 1.48,-1.744 2.641,-3.689 3.344,-5.883 0.723,-2.252 -0.083,-4.621 -2.031,-5.996 -1.118,-0.789 -2.308,-0.908 -3.542,-0.331 -1.154,0.539 -2.116,1.339 -2.818,2.4 -0.563,0.849 -1.064,1.743 -1.547,2.641 -0.753,1.398 -1.429,2.84 -2.21,4.222 C 4.434,-3.453 3.077,-1.784 1.244,-0.56 0.884,-0.319 0.444,-0.196 0,0 M 22.141,57.237 C 22.029,46.606 20.642,37.795 17.69,29.244 c -0.147,-0.428 -0.293,-0.863 -0.36,-1.306 -0.029,-0.191 0.089,-0.474 0.237,-0.607 0.333,-0.297 0.706,-0.564 1.099,-0.777 4.688,-2.544 8.396,-6.164 11.443,-10.487 5.355,-7.594 7.719,-16.098 7.472,-25.333 -0.132,-4.959 -1.439,-9.618 -3.99,-13.916 -1.468,-2.472 -3.388,-4.555 -5.458,-6.495 -3.431,-3.216 -7.376,-5.646 -11.759,-7.37 -1.7,-0.669 -3.461,-1.121 -5.254,-1.394 -3.976,-0.606 -7.736,0.071 -10.996,2.484 -2.101,1.555 -3.922,3.469 -5.188,5.797 -1.03,1.89 -1.958,3.839 -2.874,5.788 -1.109,2.362 -2.124,4.768 -3.248,7.122 -0.485,1.016 -1.131,1.955 -1.725,2.917 -0.218,0.353 -0.857,0.412 -1.218,0.131 -0.626,-0.487 -1.25,-0.98 -1.859,-1.489 -4.018,-3.354 -8.291,-6.355 -12.8,-8.999 -7.822,-4.587 -16.202,-7.587 -25.241,-8.711 -4.988,-0.62 -9.958,-0.548 -14.948,-0.123 -5.681,0.484 -11.216,1.703 -16.671,3.278 -4.803,1.386 -9.444,3.241 -13.994,5.304 -3.72,1.688 -7.366,3.533 -10.913,5.567 -0.49,0.282 -0.99,0.56 -1.437,0.903 -0.888,0.681 -1.201,1.62 -1.05,2.713 0.144,1.035 0.584,1.964 1.186,2.795 0.602,0.831 1.347,1.549 2.251,2.051 0.926,0.516 1.927,0.715 2.946,0.284 0.834,-0.352 1.651,-0.75 2.457,-1.162 3.639,-1.857 7.332,-3.595 11.087,-5.212 4.917,-2.118 10.006,-3.727 15.195,-4.941 4.748,-1.11 9.589,-1.806 14.5,-1.796 3.521,0.006 7.026,0.062 10.524,0.617 7.832,1.242 15.166,3.836 21.966,7.894 5.777,3.446 11.04,7.565 15.775,12.354 3.271,3.311 6.55,6.611 9.503,10.22 3.024,3.697 5.788,7.57 8.173,11.711 0.629,1.092 1.161,2.159 0.922,3.511 -0.137,0.781 0.198,1.562 0.661,2.239 0.193,0.28 0.326,0.631 0.578,0.837 1.691,1.378 2.213,3.335 2.806,5.304 2.024,6.708 2.703,13.564 2.297,20.527 -0.145,2.485 -0.543,4.961 -0.916,7.427 -0.356,2.354 -0.751,4.708 -1.275,7.03 -0.578,2.561 -0.733,5.167 -1.011,7.758 -0.371,3.454 1.769,6.763 5.062,8.02 0.417,0.159 0.878,0.232 1.326,0.275 1.215,0.118 2.281,-0.243 2.967,-1.276 0.751,-1.129 1.485,-2.288 2.065,-3.509 1.616,-3.403 2.677,-6.993 3.243,-10.714 0.547,-3.591 1.019,-7.194 0.895,-9.248" />
          </g>
          <g
             transform="translate(777.81507,849.47982)"
             id="g72">
            <path
               inkscape:connector-curvature="0"
               id="path74"
               
               d="m 0,0 c 0.017,-2.297 -0.386,-4.175 -0.922,-6.027 -0.828,-2.858 -2.267,-5.416 -3.936,-7.856 -0.727,-1.063 -1.719,-1.766 -2.924,-2.219 -1.727,-0.648 -3.475,-0.974 -5.322,-0.655 -1.073,0.186 -1.946,0.668 -2.431,1.643 -0.66,1.325 -1.463,2.51 -2.507,3.583 -1.478,1.521 -2.063,3.482 -2.208,5.564 -0.094,1.358 0.036,2.697 0.335,4.041 0.729,3.27 2.144,6.2 4.265,8.768 0.784,0.95 1.747,1.766 2.695,2.565 1.559,1.313 3.49,1.59 5.422,1.612 1.782,0.02 3.225,-0.727 4.339,-2.235 C -1.176,6.049 -0.119,3.023 0,0" />
          </g>
          <g
             transform="translate(714.97717,833.31621)"
             id="g76">
            <path
               inkscape:connector-curvature="0"
               id="path78"
               
               d="m 0,0 c -0.436,0.466 -0.914,0.942 -1.352,1.453 -0.78,0.908 -1.099,2.004 -0.961,3.161 0.329,2.74 1.183,5.289 2.983,7.455 1.783,2.144 4.057,3.181 6.845,3.112 1.557,-0.038 2.872,-0.632 3.912,-1.763 2.63,-2.861 3.53,-6.255 2.926,-10.053 C 14.051,1.459 13.451,-0.366 12.656,-2.131 11.678,-4.306 10.473,-6.347 9.158,-8.329 8.583,-9.198 7.83,-9.895 6.891,-10.322 6.288,-10.596 5.608,-10.775 4.947,-10.836 3.846,-10.939 2.944,-10.463 2.388,-9.5 1.246,-7.52 0.511,-5.389 0.246,-3.112 0.129,-2.104 0.083,-1.086 0,0" />
          </g>
        </g>
      </g>
    </g>
</svg>
