<?xml version="1.0" standalone="no"?>
<!DOCTYPE svg PUBLIC "-//W3C//DTD SVG 20010904//EN"
 "http://www.w3.org/TR/2001/REC-SVG-20010904/DTD/svg10.dtd">
<svg version="1.0" xmlns="http://www.w3.org/2000/svg"
 width="971.000000pt" height="968.000000pt" viewBox="0 0 971.000000 968.000000"
 preserveAspectRatio="xMidYMid meet">
<metadata>
Created by potrace 1.16, written by Peter Selinger 2001-2019
</metadata>
<g transform="translate(0.000000,968.000000) scale(0.100000,-0.100000)"
stroke=" rgba(235, 206, 146, 1)" stroke-width="350" fill="rgba(235, 206, 146, 0.75)">
<path d="M5275 9674 c-407 -22 -776 -82 -1269 -205 -153 -38 -287 -69 -298
-69 -36 0 -279 -58 -403 -95 -547 -166 -1110 -487 -1665 -949 -173 -144 -561
-528 -686 -679 -498 -605 -829 -1383 -934 -2200 -18 -139 -20 -214 -20 -632 0
-413 3 -494 20 -627 53 -418 149 -791 300 -1168 361 -905 933 -1655 1692
-2221 774 -578 1672 -852 2708 -826 944 23 1816 300 2630 835 535 352 1065
868 1449 1410 426 603 722 1314 845 2032 54 314 66 475 66 882 0 407 -7 537
-46 808 -97 685 -316 1269 -690 1843 -349 535 -797 967 -1344 1295 -521 313
-1006 474 -1640 547 -131 15 -572 27 -715 19z m395 -579 c532 -56 973 -183
1420 -411 371 -189 661 -403 965 -715 652 -668 1038 -1565 1131 -2629 20 -227
15 -746 -10 -965 -89 -788 -384 -1498 -879 -2118 -800 -1001 -2028 -1644
-3316 -1738 -205 -15 -615 -7 -801 16 -558 68 -1075 235 -1530 496 -909 521
-1614 1381 -2016 2462 -207 557 -315 1243 -285 1809 26 471 119 885 293 1291
312 733 813 1330 1575 1875 100 71 376 246 409 259 7 2 24 -13 39 -35 27 -41
60 -62 97 -62 12 0 128 36 257 80 648 218 1251 349 1801 390 80 6 168 12 195
14 101 8 514 -4 655 -19z"/>
<path d="M4930 7217 c-68 -19 -111 -50 -187 -131 -82 -88 -133 -180 -169 -304
-22 -80 -26 -107 -22 -190 5 -113 23 -162 87 -236 23 -27 56 -73 73 -103 41
-72 72 -88 173 -87 96 1 176 28 226 78 91 88 190 316 208 475 16 141 -10 252
-88 382 -54 90 -100 121 -188 125 -37 2 -88 -2 -113 -9z"/>
<path d="M3093 6754 c-115 -42 -216 -189 -242 -353 -12 -76 -1 -120 46 -172
33 -36 36 -46 44 -126 11 -107 23 -151 62 -231 39 -81 61 -96 131 -90 78 6
119 37 183 135 115 176 173 338 173 483 0 107 -18 170 -71 250 -61 90 -103
114 -203 117 -53 2 -96 -3 -123 -13z"/>
<path d="M6950 6679 c-86 -39 -159 -133 -174 -224 -9 -50 16 -272 48 -435 88
-447 97 -738 31 -1065 -39 -194 -79 -307 -129 -368 -60 -74 -68 -92 -71 -158
-3 -66 -24 -109 -138 -279 -150 -225 -304 -405 -564 -661 -92 -91 -214 -202
-271 -247 -472 -374 -965 -553 -1527 -552 -455 1 -907 126 -1484 410 -98 48
-192 91 -209 95 -63 14 -165 -56 -203 -140 -27 -58 -25 -126 4 -157 29 -31
190 -122 371 -209 568 -272 1037 -389 1559 -389 272 0 497 36 747 119 342 114
627 277 976 558 50 40 96 73 102 73 17 0 75 -104 152 -275 96 -212 155 -328
201 -396 81 -119 229 -223 356 -250 92 -19 261 -7 363 26 198 64 386 180 546
340 162 161 240 299 297 523 18 74 21 114 21 272 0 199 -12 293 -59 454 -96
330 -315 635 -579 806 -50 32 -99 65 -110 72 -18 13 -17 17 12 109 180 562
202 1220 55 1643 -55 159 -131 293 -179 315 -37 17 -94 13 -144 -10z m104
-2536 c87 -52 239 -209 318 -328 223 -334 270 -691 131 -974 -53 -107 -161
-216 -263 -264 -190 -89 -352 -75 -508 45 -72 56 -123 131 -223 328 -46 91
-112 208 -147 260 -44 66 -61 101 -57 115 3 11 56 73 118 138 l112 118 47 -30
c64 -41 126 -124 203 -271 90 -171 121 -212 189 -245 63 -31 99 -29 152 7 111
76 112 222 0 390 -58 88 -257 291 -331 337 -36 23 -65 45 -65 50 0 21 234 361
248 361 8 0 42 -17 76 -37z"/>
</g>
</svg>
