<?xml version="1.0" standalone="no"?>
<!DOCTYPE svg PUBLIC "-//W3C//DTD SVG 20010904//EN"
 "http://www.w3.org/TR/2001/REC-SVG-20010904/DTD/svg10.dtd">
<svg version="1.0" xmlns="http://www.w3.org/2000/svg"
 width="888.000000pt" height="1518.000000pt" viewBox="0 0 888.000000 1518.000000"
 preserveAspectRatio="xMidYMid meet">
<metadata>
Created by potrace 1.16, written by Peter Selinger 2001-2019
</metadata>
<g transform="translate(0.000000,1518.000000) scale(0.100000,-0.100000)"
fill='rgba(250, 245, 232, 0.8)' stroke="none">
<path d="M1635 15125 c-331 -72 -689 -373 -855 -720 -87 -182 -123 -354 -123
-590 -1 -244 33 -452 115 -705 81 -249 151 -383 317 -603 59 -79 115 -163 125
-188 26 -62 23 -174 -8 -399 -75 -528 -58 -741 114 -1490 33 -140 73 -322 89
-405 69 -346 65 -570 -16 -765 -66 -160 -125 -236 -447 -576 -309 -328 -436
-531 -511 -819 -38 -147 -50 -256 -49 -450 2 -337 78 -683 213 -970 87 -186
186 -317 415 -554 220 -229 275 -307 326 -466 34 -107 39 -306 10 -445 -54
-267 -175 -526 -358 -770 -31 -41 -176 -194 -322 -340 -265 -264 -335 -346
-425 -493 -97 -160 -176 -382 -220 -624 -24 -130 -25 -149 -25 -559 0 -454 4
-512 55 -737 102 -449 302 -820 567 -1048 201 -173 473 -301 768 -361 100 -20
144 -23 340 -23 195 0 240 3 339 23 158 32 304 78 611 192 283 105 431 153
520 170 86 16 297 38 505 52 245 16 1189 16 1430 0 494 -33 554 -46 1041 -227
293 -110 438 -155 595 -187 100 -20 143 -23 344 -23 211 1 240 3 356 28 535
114 907 405 1139 890 317 663 341 1689 55 2304 -95 204 -215 355 -496 624
-105 101 -226 225 -267 274 -183 218 -322 483 -394 754 -28 106 -31 130 -32
276 -2 299 49 402 357 723 173 179 241 261 312 370 103 160 206 423 255 647
104 482 69 895 -103 1237 -93 185 -196 317 -464 599 -231 242 -305 337 -369
472 -60 128 -77 211 -77 387 -1 211 10 278 147 882 161 709 174 898 100 1433
-30 219 -30 356 0 415 10 19 58 87 106 150 153 202 204 290 283 490 159 405
205 848 122 1186 -65 270 -222 513 -451 703 -322 267 -651 338 -949 207 -96
-43 -239 -146 -405 -291 -86 -75 -179 -147 -208 -162 -79 -39 -165 -30 -407
42 -821 244 -1288 287 -1915 175 -165 -30 -358 -78 -659 -164 -379 -109 -405
-107 -592 58 -303 267 -417 341 -598 387 -87 22 -235 24 -326 4z"/>
</g>
</svg>
