
<svg id="Layer_1" height="512" viewBox="0 0 512 512" width="512" xmlns="http://www.w3.org/2000/svg" data-name="Layer 1"><g fill='rgba(250, 245, 232, 0.8)'><path d="m416.656 90.56a4.231 4.231 0 1 0 4.232 4.231 4.236 4.236 0 0 0 -4.232-4.231z"/><path d="m467.227 69.251a44.857 44.857 0 0 0 -63.34 1.684c-18.011 19-37.56 19.041-54.808 19.08-16.985.039-31.654.072-46.128 15.336s-13.726 29.914-12.862 46.878c.877 17.225 1.871 36.749-16.141 55.744s-37.559 19.039-54.806 19.078c-16.985.038-31.654.072-46.126 15.335s-13.725 29.912-12.861 46.875c.878 17.224 1.873 36.748-16.137 55.742s-37.558 19.037-54.805 19.075c-16.984.038-31.652.07-46.123 15.332a44.8 44.8 0 1 0 65.023 61.655c18.011-19 37.56-19.041 54.808-19.08 16.985-.039 31.654-.072 46.127-15.336s13.728-29.914 12.864-46.878c-.877-17.225-1.872-36.749 16.139-55.744s37.559-19.039 54.806-19.078c16.986-.038 31.655-.072 46.127-15.335s13.726-29.912 12.861-46.875c-.878-17.225-1.872-36.748 16.137-55.742s37.558-19.037 54.8-19.076c16.984-.037 31.651-.07 46.123-15.332a44.855 44.855 0 0 0 -1.678-63.338zm-50.571 41.771a16.231 16.231 0 1 1 16.232-16.231 16.249 16.249 0 0 1 -16.232 16.231z"/></g></svg>