<?xml version="1.0" encoding="iso-8859-1"?>
<!-- Generator: Adobe Illustrator 19.0.0, SVG Export Plug-In . SVG Version: 6.00 Build 0)  -->
<svg version="1.1" id="Capa_1" xmlns="http://www.w3.org/2000/svg" xmlns:xlink="http://www.w3.org/1999/xlink"
	
	 viewBox="0 0 475 475">
<g fill="rgba(250,245,232,0.85)" stroke="rgba(250,245,232,0.85)" stroke-width="5">
	
		<path d="M399.998,79.997h-40v-72c-0.002-4.418-3.585-7.999-8.003-7.997c-0.763,0-1.521,0.11-2.253,0.325l-272,80
			c-0.16,0-0.28,0.16-0.44,0.216c-0.407,0.165-0.801,0.363-1.176,0.592c-0.484,0.259-0.939,0.568-1.36,0.92
			c-0.31,0.288-0.599,0.598-0.864,0.928c-0.351,0.425-0.659,0.883-0.92,1.368c-0.189,0.374-0.35,0.762-0.48,1.16
			c-0.185,0.563-0.304,1.145-0.352,1.736c0,0.264-0.152,0.488-0.152,0.752v384c0,4.418,3.582,8,8,8h320c4.418,0,8-3.582,8-8v-384
			C407.998,83.578,404.417,79.997,399.998,79.997z M343.998,18.685v61.312H135.55L343.998,18.685z M391.998,463.997h-304v-368h304
			V463.997z"/>
	


	
		<path d="M183.996,127.999c-2.807,0.001-5.407,1.472-6.854,3.878l-17.144,28.568l-17.144-28.568
			c-2.277-3.786-7.192-5.01-10.979-2.733c-2.405,1.446-3.877,4.047-3.878,6.853v64c0,4.418,3.582,8,8,8s8-3.582,8-8v-35.12
			l9.144,15.24c2.595,3.786,7.769,4.752,11.555,2.157c0.846-0.58,1.577-1.311,2.157-2.157l9.144-15.24v35.12c0,4.418,3.582,8,8,8
			s8-3.582,8-8v-64C191.997,131.578,188.414,127.998,183.996,127.999z"/>
	


	
		<path d="M231.998,175.997c4.418,0,8-3.582,8-8s-3.582-8-8-8h-16v-16h16c4.418,0,8-3.582,8-8s-3.582-8-8-8h-24
			c-4.418,0-8,3.582-8,8v64c0,4.418,3.582,8,8,8h24c4.418,0,8-3.582,8-8s-3.582-8-8-8h-16v-16H231.998z"/>
	


	
		<path d="M287.998,127.997c-4.418,0-8,3.582-8,8v30.112l-16.8-33.688c-1.925-3.977-6.71-5.64-10.687-3.714
			c-2.79,1.351-4.548,4.191-4.513,7.29v64c0,4.418,3.582,8,8,8c4.418,0,8-3.582,8-8v-30.112l16.8,33.688
			c1.925,3.977,6.71,5.64,10.687,3.714c2.79-1.351,4.548-4.191,4.513-7.29v-64C295.998,131.578,292.417,127.997,287.998,127.997z"/>
	


	
		<path d="M343.998,127.997c-4.418,0-8,3.582-8,8v48c0,4.418-3.582,8-8,8s-8-3.582-8-8v-48c0-4.418-3.582-8-8-8s-8,3.582-8,8v48
			c0,13.255,10.745,24,24,24s24-10.745,24-24v-48C351.998,131.578,348.417,127.997,343.998,127.997z"/>
	

<svg version="1.1" id="_x32_" xmlns="http://www.w3.org/2000/svg" xmlns:xlink="http://www.w3.org/1999/xlink" x="115px" y="210px" width="256" height="256" viewBox="0 0 512 512" >
	<path class="fill-oldLace" d="M475.433,165.344c-10.696-5.017-22.03-6.424-33.161-9.942c-12.112-3.827-23.26-10.244-33.949-16.986
		c-21.36-13.495-41.613-28.672-64.111-40.298c-44.688-23.11-96.084-29.258-144.314-13.67c-23.872,7.723-45.609,20.287-66.458,34.04
		c-20.404,13.452-40.675,29.635-64.312,37.006C46.822,162.463,25.002,165.906,10,186.016c-15.286,20.496-12.405,47.618,4.264,66.306
		c1.91,2.152,3.978,4.154,6.14,6.047c-0.444,2.513-0.544,5.06-0.26,7.598c0.302,2.772,1.038,5.377,2.144,7.932
		c-2.16,1.726-4.222,3.559-6.164,5.528c-8.795,8.929-14.558,20.631-14.558,33.321c-0.034,26.226,22.197,46.036,42.534,59.085
		c42.141,27.039,90.262,48.633,139.606,57.829c49.378,9.198,101.595,8.57,150.805-1.39c39.804-8.05,77.798-23.118,112.618-43.974
		c31.184-18.68,83.922-56.615,54.094-98.304c-1.7-2.378-3.627-4.607-5.688-6.684c-3.199-3.216-1.03-3.434,0.318-7.354
		c1.994-5.78,1.994-12.104-0.05-17.875c8.443-8.82,14.457-19.977,15.873-32.207C514.6,196.562,497.303,175.58,475.433,165.344z
		 M469.218,314.926c-0.277,0.594-0.168,0.36-0.017,0.025c-8.644,18.319-33.379,30.632-50.165,40.114
		c-20.673,11.676-42.568,21.133-65.343,27.884c-46.261,13.712-96.05,16.736-143.861,10.881
		c-50.609-6.199-97.499-26.753-140.888-52.938c-8.728-5.277-17.666-11.409-23.939-19.575c-7.84-10.21-0.318-16.149,9.197-21.418
		c22.49,9.767,46.814,15.488,70.779,20.338c60.443,12.213,122.309,17.33,183.808,11.969c31.52-2.738,62.964-7.354,93.872-14.147
		c14.256-3.132,28.445-6.734,42.316-11.316c4.515-1.499,13.109-6.76,17.096-4.113c4.405,2.932,9.799,6.558,7.152,12.279
		C469.444,314.424,469.737,313.804,469.218,314.926z M462.282,231.164c-17.557,12.539-43.171,15.948-63.844,19.876
		c-66.356,12.598-134.698,16.074-202.001,10.63c-18.327-1.483-172.357-14.508-156.342-49.604c-0.176,0.385-0.394,0.846,0.009-0.033
		c0.209-0.452,0.134-0.276,0.025-0.034c3.895-8.201,14.357-12.246,22.524-14.441c12.656-3.384,24.751-6.081,36.696-11.752
		c23.763-11.283,44.612-27.658,66.834-41.529c43.422-27.114,92.641-38.33,141.776-19.399
		c47.736,18.486,84.273,61.657,135.594,71.432c9.364,1.776,20.605,5.218,26.552,13.234
		C476.237,217.763,469.134,226.272,462.282,231.164z" ></path>
</svg>
</g>
</svg>
