<?xml version="1.0" encoding="iso-8859-1"?>
<!-- Generator: Adobe Illustrator 19.0.0, SVG Export Plug-In . SVG Version: 6.00 Build 0)  -->
<svg version="1.1" id="Capa_1" xmlns="http://www.w3.org/2000/svg" xmlns:xlink="http://www.w3.org/1999/xlink" x="0px" y="0px"
	 viewBox="0 0 512 512" style="enable-background:new 0 0 512 512;" xml:space="preserve">
<g fill="rgba(250, 245, 232, 0.75)">
		<path d="M256,0C114.844,0,0,114.844,0,256s114.844,256,256,256s256-114.844,256-256S397.156,0,256,0z M341.333,170.667
			c11.76,0,21.333,9.573,21.333,21.333s-9.573,21.333-21.333,21.333C329.573,213.333,320,203.76,320,192
			S329.573,170.667,341.333,170.667z M170.667,170.667c11.76,0,21.333,9.573,21.333,21.333s-9.573,21.333-21.333,21.333
			c-11.76,0-21.333-9.573-21.333-21.333S158.906,170.667,170.667,170.667z M410.615,409.26
			c-9.354,11.229-23.094,18.052-37.698,18.719c-0.781,0.031-1.573,0.052-2.354,0.052c-13.781,0-27.115-5.5-36.896-15.281
			l-4.891-4.891c-21.65,12.03-46.503,18.807-72.776,18.807c-69.594,0-129.365-47.24-145.344-114.885
			c-1.354-5.729,2.198-11.479,7.938-12.833c5.688-1.313,11.469,2.188,12.833,7.938c13.688,57.958,64.917,98.448,124.573,98.448
			c59.583,0,110.792-40.427,124.542-98.313c1.354-5.729,7.063-9.313,12.844-7.906c5.729,1.354,9.271,7.104,7.906,12.844
			c-1.297,5.465-3.323,10.559-5.174,15.742L407.417,339C426.615,358.198,427.99,388.406,410.615,409.26z"/>
	</g>
</svg>
