<?xml version="1.0" standalone="no"?>
<!DOCTYPE svg PUBLIC "-//W3C//DTD SVG 20010904//EN"
 "http://www.w3.org/TR/2001/REC-SVG-20010904/DTD/svg10.dtd">
<svg version="1.0" xmlns="http://www.w3.org/2000/svg"
 width="1211.000000pt" height="1209.000000pt" viewBox="0 0 1211.000000 1209.000000"
 preserveAspectRatio="xMidYMid meet">
<metadata>
Created by potrace 1.16, written by Peter Selinger 2001-2019
</metadata>
<g transform="translate(0.000000,1209.000000) scale(0.100000,-0.100000)"
fill="#000000" stroke="none">
<path d="M5420 12031 c-831 -99 -1486 -297 -2195 -665 -186 -97 -291 -159
-505 -301 -1006 -665 -1765 -1586 -2237 -2715 -179 -429 -301 -856 -384 -1347
-56 -334 -61 -425 -56 -1029 4 -605 7 -635 88 -1054 273 -1402 972 -2590 2063
-3504 760 -637 1717 -1089 2711 -1281 445 -86 605 -98 1235 -92 525 4 592 10
987 82 1503 276 2841 1111 3755 2345 448 604 789 1320 977 2050 137 531 194
980 194 1530 0 515 -49 935 -168 1425 -192 799 -592 1627 -1090 2260 -766 973
-1710 1638 -2876 2026 -317 105 -586 172 -909 223 -333 54 -395 58 -930 62
-441 3 -525 1 -660 -15z m910 -521 c256 -10 404 -25 630 -66 1000 -182 1838
-569 2595 -1200 159 -133 506 -477 645 -639 683 -802 1119 -1772 1269 -2825
35 -247 42 -361 42 -743 0 -416 -11 -553 -67 -887 -144 -857 -493 -1679 -1004
-2365 -287 -387 -654 -760 -1046 -1067 -150 -117 -479 -337 -644 -430 -669
-380 -1399 -615 -2170 -700 -160 -17 -937 -18 -1085 0 -678 80 -1252 246
-1841 532 -563 273 -1024 598 -1457 1028 -379 376 -657 737 -918 1192 -393
686 -656 1542 -699 2275 -21 364 -9 905 26 1145 155 1067 565 1993 1244 2811
134 160 509 535 670 669 822 684 1791 1106 2843 1241 311 40 518 46 967 29z"/>
<path d="M6045 9357 c-71 -24 -106 -47 -192 -130 -144 -138 -233 -295 -285
-502 -17 -66 -20 -100 -15 -205 6 -163 20 -202 123 -341 45 -63 96 -132 111
-153 51 -71 72 -81 186 -85 165 -5 262 26 348 114 91 92 193 298 246 495 33
122 37 317 9 420 -40 149 -145 321 -224 367 -43 25 -57 28 -157 30 -70 2 -124
-2 -150 -10z"/>
<path d="M3649 8749 c-179 -19 -352 -241 -388 -495 -14 -96 0 -149 60 -230 27
-37 49 -70 49 -73 0 -46 36 -260 52 -306 28 -85 76 -172 112 -202 28 -23 36
-25 106 -21 87 5 123 21 180 81 75 77 201 297 253 444 52 145 70 317 46 449
-25 138 -154 319 -244 342 -53 14 -157 19 -226 11z"/>
<path d="M8774 8631 c-79 -37 -154 -113 -196 -198 -32 -66 -33 -72 -32 -183 2
-131 20 -273 69 -545 95 -520 113 -831 69 -1175 -30 -233 -97 -508 -151 -614
-14 -28 -47 -80 -73 -116 -66 -90 -70 -100 -80 -191 -11 -100 -37 -152 -175
-359 -181 -273 -351 -481 -624 -762 -266 -274 -482 -465 -691 -612 -493 -347
-975 -533 -1530 -592 -214 -22 -596 -15 -795 16 -487 74 -877 205 -1524 512
-151 72 -292 133 -312 135 -78 11 -209 -79 -260 -179 -29 -57 -37 -163 -16
-205 27 -51 186 -146 501 -298 489 -236 900 -379 1326 -459 518 -98 1049 -98
1490 0 238 53 492 142 728 255 288 137 498 273 931 607 76 58 96 70 108 60 27
-22 94 -149 204 -385 209 -451 279 -563 421 -678 155 -123 259 -165 433 -172
313 -13 611 97 940 345 91 69 303 288 362 373 96 140 170 312 220 514 25 101
25 576 0 715 -76 419 -261 787 -542 1079 -108 113 -205 192 -348 286 -76 50
-107 76 -107 90 0 11 16 72 36 135 139 451 203 913 191 1389 -10 393 -60 661
-174 931 -49 116 -120 235 -166 276 -34 32 -42 34 -105 34 -53 0 -80 -6 -128
-29z m115 -3402 c167 -94 402 -351 534 -585 297 -526 265 -1086 -81 -1405 -87
-80 -158 -123 -269 -162 -80 -29 -99 -32 -208 -32 -100 0 -130 4 -179 22 -94
36 -165 82 -242 158 -79 78 -123 149 -269 425 -54 102 -126 230 -160 285 -93
148 -102 168 -83 197 17 25 242 271 276 301 20 18 22 18 65 -12 100 -69 170
-163 302 -405 122 -225 179 -286 298 -318 62 -16 111 0 175 57 107 96 116 247
26 426 -65 130 -334 421 -497 538 l-88 63 22 36 c81 134 301 442 316 442 3 0
31 -14 62 -31z"/>
</g>
</svg>
